<svg xmlns="http://www.w3.org/2000/svg" viewBox="0 0 900 560" role="img" aria-label="TMS mock widgets">
  <defs>
    <linearGradient id="bg" x1="0" y1="0" x2="1" y2="1">
      <stop offset="0" stop-color="#0d1a33"/>
      <stop offset="1" stop-color="#0a1224"/>
    </linearGradient>
  </defs>
  <rect width="900" height="560" fill="url(#bg)"/>
  <!-- Cards -->
  <g transform="translate(40 40)">
    <rect width="340" height="180" rx="16" fill="#0f1c38" stroke="#1f2b4a"/>
    <rect x="20" y="20" width="140" height="16" rx="8" fill="#3a5fd9" />
    <rect x="20" y="50" width="220" height="10" rx="5" fill="#23355d" />
    <rect x="20" y="70" width="180" height="10" rx="5" fill="#23355d" />
    <rect x="20" y="90" width="200" height="10" rx="5" fill="#23355d" />
  </g>
  <g transform="translate(400 40)">
    <rect width="460" height="300" rx="18" fill="#0f1c38" stroke="#1f2b4a"/>
    <rect x="24" y="24" width="200" height="16" rx="8" fill="#3a5fd9" />
    <rect x="24" y="56" width="410" height="180" rx="10" fill="#0b152b" stroke="#1a2746"/>
    <rect x="24" y="250" width="150" height="10" rx="5" fill="#23355d" />
    <rect x="24" y="270" width="120" height="10" rx="5" fill="#23355d" />
  </g>
  <g transform="translate(40 240)">
    <rect width="340" height="260" rx="18" fill="#0f1c38" stroke="#1f2b4a"/>
    <rect x="20" y="20" width="100" height="14" rx="7" fill="#3a5fd9" />
    <rect x="20" y="50" width="300" height="160" rx="10" fill="#0b152b" stroke="#1a2746"/>
    <rect x="20" y="220" width="120" height="10" rx="5" fill="#23355d" />
  </g>
</svg>
